<svg xmlns="http://www.w3.org/2000/svg" viewBox="0 0 149.33 32" height="24"><title>MyPlex</title><g id="Layer_2" data-name="Layer 2"><g id="Layer_1-2" data-name="Layer 1"><path d="M28.05,19.77l0-1a20.37,20.37,0,0,1,.18-2.05L28.49,15c.05-.41.1-.79.15-1.12-.93,1-1.68,1.81-2.25,2.38L24.7,17.89Q19,23.2,18,23.19a9.26,9.26,0,0,1-3.36-.69c-.64-.25-1-.52-1.09-.79a4,4,0,0,1-.2-1.4c0-.59,0-1.14.06-1.64s.09-1,.14-1.49.12-1,.19-1.42.11-.86.15-1.2c.1-.77.12-1.16.06-1.16L8.44,20.11c-2.57,3-4,4.7-4.39,5a3.59,3.59,0,0,1-2.49,1,1.82,1.82,0,0,1-1.12-.34A1,1,0,0,1,0,25,3.44,3.44,0,0,1,.84,22.9l13-16.57L15.4,4.49Q18.13,1.28,19,1.28a4.55,4.55,0,0,1,2.26.6c.64.35,1,.69,1.09,1a8.34,8.34,0,0,1-.25,1.77l-.52,2.78a44.49,44.49,0,0,0-.86,6c0,.89.1,1.34.31,1.34q1,0,3.84-3.27l4.76-5.7a10.32,10.32,0,0,1,2.08-2,1,1,0,0,1,.43-.08,3,3,0,0,1,.62.08,6.82,6.82,0,0,1,.71.19,5.24,5.24,0,0,1,.69.28,4.14,4.14,0,0,1,.6.34c.39.25.57.46.57.62s-.05.51-.12,1-.18,1.18-.3,1.95q-1.22,7.59-1.27,8.8a2.35,2.35,0,0,0,.25,1.53,1.18,1.18,0,0,0,.89.31,6.81,6.81,0,0,0,3.11-1.28,4.58,4.58,0,0,1,2.28-.86c.61,0,.91.28.91.86a3.91,3.91,0,0,1-1,2.17,12.56,12.56,0,0,1-4.17,3.35,9.46,9.46,0,0,1-4.43,1.25Q28.06,24.31,28.05,19.77Z"/><path d="M46.74,17.1c0,.45.3.68.89.68,1.22,0,3.28-1.52,6.2-4.54l1.42-1.44c1-1,1.61-1.42,1.92-1.42a2,2,0,0,1,.84.16,2.39,2.39,0,0,1,.65.41A1.48,1.48,0,0,1,59.23,12a6.69,6.69,0,0,1-.13,1.28,13.44,13.44,0,0,1-.38,1.56A35.81,35.81,0,0,1,57,19.21l-.6,1.3,2.49-2.26L64,13.87a2.38,2.38,0,0,1,1.29-.59c.75,0,1.12.36,1.12,1.08a5,5,0,0,1-1.44,2.83,8.32,8.32,0,0,1-1,1l-3.46,3-6.75,5.71q-.9.78-1.35,1.23c-.36.59-.65,1-.85,1.32s-.39.59-.59.92-.39.61-.57.85A1.63,1.63,0,0,1,49.2,32,1.82,1.82,0,0,1,48,31.49a2.55,2.55,0,0,1-1.09-1.71A4.72,4.72,0,0,1,47.31,28c.27-.66.63-1.41,1.07-2.26L51.49,20A18.84,18.84,0,0,1,48,22.72a10.47,10.47,0,0,1-2.15.86,7.88,7.88,0,0,1-1.85.21,3.48,3.48,0,0,1-1.71-.4A3.62,3.62,0,0,1,41,22.31a6,6,0,0,1-.94-3.48,9.64,9.64,0,0,1,1.15-4.49,9.59,9.59,0,0,1,2.9-3.49,6.55,6.55,0,0,1,3.92-1.41c1.34,0,2,.52,2,1.57,0,.66-.55,1.63-1.67,2.91A5.54,5.54,0,0,0,46.74,17.1Z"/><path d="M66.79,22.43a1.17,1.17,0,0,1-.18-.83A4.05,4.05,0,0,1,67,20.54c.22-.43.51-1,.88-1.63l1.3-2.21,1.58-2.61,1.79-2.82,1.88-2.81A17.9,17.9,0,0,0,69,10.55a3.41,3.41,0,0,0-.53.43l-.5.5a1.3,1.3,0,0,1-.89.45,1.63,1.63,0,0,1-.69-.11,1,1,0,0,1-.38-.28.82.82,0,0,1-.14-.94A22.29,22.29,0,0,1,67.7,6.46a3.4,3.4,0,0,1,1-1.35q2.79-1.2,11.62-1.75c1.92-.12,3.94-.17,6.05-.17a6.2,6.2,0,0,1,3.93,1.48A5.22,5.22,0,0,1,92.42,8.9q0,3.31-5.7,6.28a25.83,25.83,0,0,1-5.93,2.32,6.07,6.07,0,0,1-1.11.16,5,5,0,0,1-.88-.1,3.79,3.79,0,0,1-.88-.3c-.63-.31-.94-.69-.94-1.13,0-.62.6-1.26,1.8-1.91l3.16-1.7a17.54,17.54,0,0,0,3.46-2.17,1.85,1.85,0,0,0,.66-1.11,1.8,1.8,0,0,0-.17-.8,2.25,2.25,0,0,0-.46-.66,1.89,1.89,0,0,0-1.35-.63,35,35,0,0,0-3.61.23l-1.79,3.16A47.59,47.59,0,0,0,74,21.75c-.33,1.3-1.59,1.94-3.77,1.94Q67.54,23.69,66.79,22.43Z"/><path d="M108.77,13c.63,0,.94.26.94.77A3.76,3.76,0,0,1,108.56,16a34.57,34.57,0,0,1-4.46,4.29q-4.18,3.34-7.47,3.34a4.59,4.59,0,0,1-3.87-2.05,9.53,9.53,0,0,1-1.58-5.76q0-4.74,4.63-10.48a18.17,18.17,0,0,1,5.53-5A3.12,3.12,0,0,1,102.58,0a2.28,2.28,0,0,1,.8.14,2.21,2.21,0,0,1,.66.39A1.82,1.82,0,0,1,104.76,2a5.43,5.43,0,0,1-.47,2,13.56,13.56,0,0,1-1.36,2.49,24.23,24.23,0,0,1-5.13,5.37A8.32,8.32,0,0,0,97,15.71a3.17,3.17,0,0,0,.64,1.9,1.84,1.84,0,0,0,1.46.9c.72,0,2.11-.75,4.15-2.25l2.61-2A4.89,4.89,0,0,1,108.77,13Z"/><path d="M126.71,12.55c.47,0,.7.26.7.79a3.36,3.36,0,0,1-.36,1.33,5.36,5.36,0,0,1-1,1.5c-.45.46-1,.95-1.55,1.44s-1.26,1-2,1.58-1.64,1.09-2.58,1.62a25.11,25.11,0,0,1-3,1.46,17.88,17.88,0,0,1-6.8,1.44,7.53,7.53,0,0,1-4.39-1.31,4,4,0,0,1-2-3.32c0-2,1.1-4,3.3-5.82a20.56,20.56,0,0,1,6.71-3.69,12.75,12.75,0,0,1,4-.79,3.77,3.77,0,0,1,2.24.64,2.23,2.23,0,0,1,1,1.9c0,1.24-1,2.62-3,4.12a10.46,10.46,0,0,1-.85.62l-.53.35a25.55,25.55,0,0,1-4.46,2.31,3.78,3.78,0,0,0,1.73.48,5,5,0,0,0,1.44-.19,15.24,15.24,0,0,0,1.44-.54c.54-.24,1.11-.52,1.73-.85s1.23-.69,1.85-1.08a26.42,26.42,0,0,0,3.64-2.67A6,6,0,0,1,126,12.68,2.29,2.29,0,0,1,126.71,12.55Zm-16.19,4.13.8-.42c.27-.13.5-.26.71-.38a27.66,27.66,0,0,0,3.38-2.1c.27-.26.41-.44.41-.55a.94.94,0,0,0-.09-.36,1.26,1.26,0,0,0-.24-.36,1,1,0,0,0-.75-.41,2.91,2.91,0,0,0-.87.14,5,5,0,0,0-1,.41,5.94,5.94,0,0,0-.93.61,5.78,5.78,0,0,0-.79.77,2.7,2.7,0,0,0-.78,1.6A4,4,0,0,0,110.52,16.68Z"/><path d="M136.16,16.82q1.05,1.68,2.25,1.68t4.53-2.21l1.6-1.08,1.21-.89.83-.64a2.91,2.91,0,0,1,1.82-.62,1.14,1.14,0,0,1,.63.2.58.58,0,0,1,.3.52,2.16,2.16,0,0,1-.1.66,3.77,3.77,0,0,1-.28.68,5.9,5.9,0,0,1-.79,1.26c-.25.29-.52.57-.8.85s-.63.61-1,1-.88.77-1.4,1.21-1.08.87-1.68,1.3-1.23.84-1.89,1.24a15.09,15.09,0,0,1-2,1.06,10.48,10.48,0,0,1-4.17,1,3.82,3.82,0,0,1-3.34-2.23,14.91,14.91,0,0,1-.71-1.38l-4.55,3.26a3.27,3.27,0,0,1-2,.85,1.31,1.31,0,0,1-.81-.26,1.39,1.39,0,0,1-.65-1.07,1.45,1.45,0,0,1,.22-.86,3.26,3.26,0,0,1,.55-.58l5.78-5c-.44-1-.88-1.54-1.33-1.54a3.24,3.24,0,0,0-2,.82l-.65.52a4.1,4.1,0,0,1-2.45,1.13,1.27,1.27,0,0,1-.78-.27,1.47,1.47,0,0,1-.69-1.19c0-.45.5-1.08,1.49-1.9l.57-.49.78-.69,3-2.45A6.48,6.48,0,0,1,131.21,9c.82,0,1.61.79,2.38,2.37.23.46.45.94.68,1.45l2.7-2.32c1.56-1.32,2.74-2,3.52-2a2.7,2.7,0,0,1,1.64.53c.93.65,1.4,1.28,1.4,1.88a.9.9,0,0,1-.47.83,2.8,2.8,0,0,0-.31.21l-3.32,2.46Z"/></g></g></svg>